<svg xmlns="http://www.w3.org/2000/svg" width="96" height="96" viewBox="0 0 64 64"><path d="M12 31V22C12 0 52 0 52 22V31L44 38V51H20V38Z M20 21H27V29H20Z M37 21H44V29H37Z M28 42V52M36 42V52" fill="#25434a" stroke="#12242c" stroke-width="8" stroke-linejoin="round" stroke-linecap="round" transform="translate(0 2)"/><path d="M12 31V22C12 0 52 0 52 22V31L44 38V51H20V38Z M20 21H27V29H20Z M37 21H44V29H37Z M28 42V52M36 42V52" fill="#25434a" stroke="#edbe72" stroke-width="4" stroke-linejoin="round" stroke-linecap="round"/></svg>