<svg xmlns="http://www.w3.org/2000/svg" width="96" height="96" viewBox="0 0 64 64"><path d="M19 24C2 7 1 36 17 40 M45 24C62 7 63 36 47 40" fill="#354050" stroke="#12242c" stroke-width="6" stroke-linecap="round" stroke-linejoin="round"/><path d="M19 24C2 7 1 36 17 40 M45 24C62 7 63 36 47 40" fill="#354050" stroke="#ba91dc" stroke-width="3" stroke-linecap="round" stroke-linejoin="round"/><path d="M17 22Q17 12 32 12Q47 12 47 22V41Q45 55 32 55Q19 55 17 41Z" fill="#25434a" stroke="#12242c" stroke-width="6" stroke-linecap="round" stroke-linejoin="round"/><path d="M17 22Q17 12 32 12Q47 12 47 22V41Q45 55 32 55Q19 55 17 41Z" fill="#25434a" stroke="#75d5c4" stroke-width="3" stroke-linecap="round" stroke-linejoin="round"/><path d="M25 29V31M39 29V31" fill="none" stroke="#12242c" stroke-width="6" stroke-linecap="round" stroke-linejoin="round"/><path d="M25 29V31M39 29V31" fill="none" stroke="#75d5c4" stroke-width="3" stroke-linecap="round" stroke-linejoin="round"/><path d="M27 12L32 4L37 12" fill="none" stroke="#12242c" stroke-width="5" stroke-linecap="round" stroke-linejoin="round"/><path d="M27 12L32 4L37 12" fill="none" stroke="#ba91dc" stroke-width="2" stroke-linecap="round" stroke-linejoin="round"/><path d="M25 42Q32 51 39 42" fill="none" stroke="#12242c" stroke-width="5.5" stroke-linecap="round" stroke-linejoin="round"/><path d="M25 42Q32 51 39 42" fill="none" stroke="#75d5c4" stroke-width="2.5" stroke-linecap="round" stroke-linejoin="round"/></svg>
